<svg xmlns="http://www.w3.org/2000/svg" viewBox="0 0 495.73 61.11"><defs><style>.cls-1{fill:#1e293b;}.cls-2{fill:#1d4ed8;}.cls-3{fill:#e11d48;}</style></defs><g id="Livello_2" data-name="Livello 2"><g id="Livello_1-2" data-name="Livello 1"><path class="cls-1" d="M83,61.11a25.88,25.88,0,0,1-8.57-1.32,13.92,13.92,0,0,1-5.95-3.74,8.12,8.12,0,0,1-2.17-5.58,7.69,7.69,0,0,1,1.55-4.83,9.73,9.73,0,0,1,4.13-3,18.5,18.5,0,0,1,4.93-1.38,39.28,39.28,0,0,1,5.81-.4H96.26v6h-12a23.52,23.52,0,0,0-2.8.17,5.86,5.86,0,0,0-2.35.75,3.38,3.38,0,0,0-1.33,1.15,2.78,2.78,0,0,0-.44,1.55,3.33,3.33,0,0,0,2,3,10.48,10.48,0,0,0,5.24,1.12,14.78,14.78,0,0,0,5.37-.95A9.88,9.88,0,0,0,93.82,51a5.67,5.67,0,0,0,1.47-3.84l2.93,4.33A12.85,12.85,0,0,1,94.71,57a14.53,14.53,0,0,1-5.37,3.12A20.35,20.35,0,0,1,83,61.11Zm13.22-.66-.88-4.86V40a4.65,4.65,0,0,0-2.45-4.3,13.19,13.19,0,0,0-6.61-1.41,25.68,25.68,0,0,0-7,1,22.1,22.1,0,0,0-6.35,2.86L67.24,32.6a34.8,34.8,0,0,1,9.45-4,42.68,42.68,0,0,1,10.43-1.22q9.06,0,14.11,3.35A10.52,10.52,0,0,1,106.29,40V60.45Z"/><path class="cls-1" d="M129,61.11a12.76,12.76,0,0,1-7.46-2c-2-1.36-2.93-3.5-2.93-6.44v-38h10.92V51.06a2.1,2.1,0,0,0,.89,1.94,4.28,4.28,0,0,0,2.3.55,13.4,13.4,0,0,0,1.51-.09c.54-.07,1.1-.17,1.69-.3v7a26.18,26.18,0,0,1-3.68.76A27,27,0,0,1,129,61.11Z"/><path class="cls-1" d="M165.68,61.11a28.05,28.05,0,0,1-11.28-2.17,19.18,19.18,0,0,1-7.85-6,14.64,14.64,0,0,1-.05-17.4,19,19,0,0,1,7.86-6,28.32,28.32,0,0,1,11.32-2.17A27.89,27.89,0,0,1,177,29.58a19.41,19.41,0,0,1,7.81,6,13.87,13.87,0,0,1,2.89,8.7,14.15,14.15,0,0,1-2.84,8.67,19.25,19.25,0,0,1-7.81,6A27.94,27.94,0,0,1,165.68,61.11Zm.08-7.16a13.37,13.37,0,0,0,5.82-1.18,8.58,8.58,0,0,0,3.73-3.35,10.09,10.09,0,0,0,1.28-5.19A10,10,0,0,0,175.31,39a8.39,8.39,0,0,0-3.73-3.29,13.67,13.67,0,0,0-5.82-1.15,14.14,14.14,0,0,0-5.94,1.15A8.63,8.63,0,0,0,156,39a9.64,9.64,0,0,0-1.33,5.22A9.73,9.73,0,0,0,156,49.42a8.82,8.82,0,0,0,3.82,3.35A13.83,13.83,0,0,0,165.76,54Z"/><path class="cls-1" d="M198.69,60.45V28.07h11.1v8.8L208.1,37a8.29,8.29,0,0,1,2.31-5,14.12,14.12,0,0,1,5-3.38,15.94,15.94,0,0,1,6.08-1.22,19,19,0,0,1,8.34,1.84l-5.32,7.36a16.39,16.39,0,0,0-2.49-.72,14.11,14.11,0,0,0-3-.33,12.42,12.42,0,0,0-3.41.46,8.63,8.63,0,0,0-2.93,1.44,7.25,7.25,0,0,0-2.09,2.63,11.44,11.44,0,0,0-.58,2.33,29.7,29.7,0,0,0-.22,4.11V60.45Z"/><path class="cls-1" d="M238.28,23.08V14.67h11.81v8.41Zm.36,37.37V28.07h11V60.45Z"/><path class="cls-1" d="M277.87,61.11a30.92,30.92,0,0,1-8.52-1,24.52,24.52,0,0,1-6.17-2.63,25.64,25.64,0,0,1-4-3l7.55-4.86a14.69,14.69,0,0,0,4.3,3.38,14.29,14.29,0,0,0,7,1.54,11.16,11.16,0,0,0,5.11-.95,2.78,2.78,0,0,0,1.82-2.4,2.25,2.25,0,0,0-1.16-1.93,10.18,10.18,0,0,0-3.1-1.25c-1.31-.33-2.76-.65-4.35-.95s-3.38-.75-5.15-1.19a23.49,23.49,0,0,1-4.89-1.74,10.42,10.42,0,0,1-3.59-2.79A6.57,6.57,0,0,1,261.27,37q0-4.26,4.53-6.93t12-2.66a27.72,27.72,0,0,1,9.5,1.55A15.84,15.84,0,0,1,294,33.39l-6.84,4A9.72,9.72,0,0,0,283,34.54a16.26,16.26,0,0,0-5.55-.95,10.6,10.6,0,0,0-4.22.72c-1.09.48-1.64,1.14-1.64,2a1.78,1.78,0,0,0,.76,1.45,6.79,6.79,0,0,0,2.48,1c1.15.29,2.68.61,4.57,1s3.61.68,5.51,1.11a28.65,28.65,0,0,1,5.32,1.78,10.8,10.8,0,0,1,4,2.95,7.14,7.14,0,0,1,1.5,4.66,8.3,8.3,0,0,1-2.21,5.69,14.56,14.56,0,0,1-6.22,3.84A28.85,28.85,0,0,1,277.87,61.11Z"/><path class="cls-1" d="M355.19,23.08V14.67H367v8.41Zm.35,37.37V28.07h11V60.45Z"/><path class="cls-1" d="M394.77,61.11a30.92,30.92,0,0,1-8.52-1,24.68,24.68,0,0,1-6.17-2.63,25,25,0,0,1-4-3l7.54-4.86a14.74,14.74,0,0,0,4.31,3.38,14.22,14.22,0,0,0,7,1.54,11.16,11.16,0,0,0,5.11-.95,2.78,2.78,0,0,0,1.82-2.4,2.25,2.25,0,0,0-1.16-1.93,10.18,10.18,0,0,0-3.1-1.25c-1.31-.33-2.76-.65-4.35-.95s-3.38-.75-5.15-1.19a23.4,23.4,0,0,1-4.88-1.74,10.36,10.36,0,0,1-3.6-2.79A6.57,6.57,0,0,1,378.18,37c0-2.84,1.5-5.15,4.52-6.93s7-2.66,12-2.66A27.66,27.66,0,0,1,404.18,29a15.84,15.84,0,0,1,6.75,4.43l-6.83,4a9.81,9.81,0,0,0-4.22-2.86,16.26,16.26,0,0,0-5.55-.95,10.51,10.51,0,0,0-4.21.72c-1.1.48-1.65,1.14-1.65,2a1.78,1.78,0,0,0,.76,1.45,6.79,6.79,0,0,0,2.48,1c1.16.29,2.68.61,4.57,1s3.61.68,5.51,1.11a28.4,28.4,0,0,1,5.32,1.78,10.8,10.8,0,0,1,4,2.95,7.15,7.15,0,0,1,1.51,4.66,8.26,8.26,0,0,1-2.22,5.69,14.56,14.56,0,0,1-6.22,3.84A28.85,28.85,0,0,1,394.77,61.11Z"/><path class="cls-1" d="M423.27,23.08V14.67h11.8v8.41Zm.35,37.37V28.07h11V60.45Z"/><path class="cls-1" d="M467.65,61.11a28,28,0,0,1-11.27-2.17,19.14,19.14,0,0,1-7.86-6,14.66,14.66,0,0,1,0-17.4,19,19,0,0,1,7.85-6,28.35,28.35,0,0,1,11.32-2.17A28,28,0,0,1,479,29.58a19.54,19.54,0,0,1,7.81,6,13.92,13.92,0,0,1,2.88,8.7,14.15,14.15,0,0,1-2.84,8.67,19.18,19.18,0,0,1-7.81,6A27.91,27.91,0,0,1,467.65,61.11Zm.09-7.16a13.32,13.32,0,0,0,5.81-1.18,8.58,8.58,0,0,0,3.73-3.35,10,10,0,0,0,1.29-5.19A9.9,9.9,0,0,0,477.28,39a8.39,8.39,0,0,0-3.73-3.29,13.62,13.62,0,0,0-5.81-1.15,14.19,14.19,0,0,0-5.95,1.15A8.63,8.63,0,0,0,458,39a9.73,9.73,0,0,0-1.33,5.22A9.82,9.82,0,0,0,458,49.42a8.82,8.82,0,0,0,3.82,3.35A13.88,13.88,0,0,0,467.74,54Z"/><path class="cls-2" d="M297.69,15.67l26.07,44a1,1,0,0,0,1.76,0l26.07-44h-14.8a1,1,0,0,0-.89.52L324.64,35.91,312.11,16.15a1,1,0,0,0-.87-.48Z"/><path class="cls-3" d="M323.93,20.53l6.12-11A1,1,0,0,1,331,9h20.61a1,1,0,0,0,.9-.52L357.29,0H290.56l4.84,8.46a1,1,0,0,0,.89.52h20.62a1,1,0,0,1,.89.53Z"/><path class="cls-2" d="M6.42,15.48,32.48,60.17a1,1,0,0,0,1.77,0L60.31,15.48H45.51a1,1,0,0,0-.89.53L33.37,36,20.83,16a1,1,0,0,0-.86-.48Z"/><path class="cls-3" d="M33.37,20.62l6.12-11a1,1,0,0,1,.89-.52H490a1,1,0,0,0,.89-.52L495.73.08H0L4.84,8.55a1,1,0,0,0,.89.52H26.35a1,1,0,0,1,.89.52Z"/></g></g></svg>