<svg xmlns="http://www.w3.org/2000/svg" viewBox="0 0 184.29 166.27"><defs><style>.cls-1{fill:#1d4ed8;}.cls-2{fill:#e11d48;}</style></defs><g id="Livello_2" data-name="Livello 2"><g id="Livello_1-2" data-name="Livello 1"><path class="cls-1" d="M19.69,43.28l72,121.61a2.85,2.85,0,0,0,4.88,0l72-121.61H127.66a2.86,2.86,0,0,0-2.47,1.43L94.11,99.17,59.5,44.59a2.85,2.85,0,0,0-2.4-1.31Z"/><path class="cls-2" d="M92.14,56.7l16.92-30.44a2.8,2.8,0,0,1,2.47-1.45h56.93a2.85,2.85,0,0,0,2.47-1.44L184.29,0H0L13.36,23.38a2.85,2.85,0,0,0,2.47,1.43H72.76a2.83,2.83,0,0,1,2.47,1.45Z"/></g></g></svg>