<?xml version="1.0" standalone="no"?>
<!DOCTYPE svg PUBLIC "-//W3C//DTD SVG 20010904//EN"
 "http://www.w3.org/TR/2001/REC-SVG-20010904/DTD/svg10.dtd">
<svg version="1.0" xmlns="http://www.w3.org/2000/svg"
 width="736.000000pt" height="736.000000pt" viewBox="0 0 736.000000 736.000000"
 preserveAspectRatio="xMidYMid meet">
<metadata>
Created by potrace 1.14, written by Peter Selinger 2001-2017
</metadata>
<g transform="translate(0.000000,736.000000) scale(0.100000,-0.100000)"
fill="#000000" stroke="none">
<path d="M12 6978 c8 -13 32 -54 54 -93 21 -38 44 -79 51 -90 7 -11 17 -29 22
-40 6 -11 22 -38 36 -60 14 -22 28 -47 32 -55 4 -8 28 -51 53 -95 25 -44 49
-87 53 -95 4 -8 16 -28 27 -45 10 -16 25 -41 33 -55 7 -14 25 -45 39 -70 14
-25 40 -72 58 -105 18 -33 39 -67 46 -76 8 -8 14 -21 14 -27 0 -6 15 -22 33
-36 l34 -26 1166 0 c860 0 1173 -3 1191 -12 14 -6 32 -21 39 -32 31 -46 197
-347 197 -355 0 -5 3 -11 8 -13 4 -1 17 -23 30 -48 13 -25 34 -63 46 -85 66
-112 316 -569 316 -575 0 -5 3 -10 8 -12 4 -1 23 -33 42 -70 19 -37 37 -68 40
-68 3 0 18 26 35 58 16 31 32 59 35 62 3 3 18 30 34 60 42 80 64 120 89 165
13 22 41 72 62 110 21 39 51 92 67 118 15 26 28 49 28 51 0 2 25 47 55 101 30
53 55 101 55 106 0 5 4 9 8 9 4 0 13 12 19 28 6 15 28 56 48 92 130 231 161
283 180 293 15 9 324 13 1201 17 1345 6 1196 -6 1255 99 18 31 41 72 52 91 11
19 74 130 140 245 137 239 149 261 178 313 12 20 46 80 76 132 31 52 58 98 60
103 2 4 -1653 7 -3678 7 l-3681 0 14 -22z"/>
<path d="M811 5270 c-19 -5 -18 -6 5 -45 13 -22 27 -47 31 -55 3 -8 28 -50 55
-93 26 -43 48 -80 48 -81 0 -2 36 -62 80 -135 44 -73 80 -134 80 -136 0 -1 36
-62 80 -135 44 -73 80 -133 80 -135 0 -2 110 -188 150 -255 42 -69 167 -279
176 -295 6 -11 47 -81 91 -155 44 -74 113 -191 154 -260 40 -69 77 -126 81
-128 4 -2 8 -8 8 -14 0 -5 33 -64 73 -131 39 -67 77 -129 82 -139 6 -10 36
-61 68 -114 31 -53 57 -100 57 -105 0 -5 5 -9 10 -9 6 0 10 -5 10 -10 0 -6 12
-29 27 -53 32 -49 54 -88 80 -137 10 -19 21 -36 26 -38 4 -2 7 -10 7 -18 0 -8
5 -14 10 -14 6 0 10 -4 10 -9 0 -5 18 -39 40 -75 22 -36 40 -70 40 -75 0 -5 4
-11 8 -13 5 -1 32 -46 62 -98 30 -52 57 -97 61 -100 4 -3 13 -17 19 -30 5 -14
19 -38 30 -55 10 -16 25 -41 33 -55 7 -14 64 -110 126 -215 62 -104 118 -199
124 -210 7 -11 27 -43 45 -72 17 -30 32 -58 32 -63 0 -6 3 -10 8 -10 4 0 12
-10 18 -23 21 -44 67 -122 80 -138 8 -8 14 -18 14 -22 0 -5 83 -146 110 -187
6 -8 13 -22 17 -30 4 -8 17 -32 30 -53 13 -21 32 -53 42 -70 33 -58 213 -361
244 -411 31 -48 49 -80 83 -143 33 -60 127 -81 175 -37 20 18 129 197 129 212
0 6 4 12 8 14 5 2 37 53 72 113 36 61 70 116 77 123 7 8 11 18 8 23 -4 5 -2 9
4 9 5 0 11 6 13 12 3 13 81 146 185 315 18 30 33 55 33 58 0 2 36 63 80 136
44 72 80 132 80 134 0 2 18 32 40 66 22 35 43 71 47 79 16 36 138 235 145 238
4 2 8 8 8 14 0 5 36 70 80 144 44 73 80 138 80 144 0 5 4 10 8 10 4 0 19 22
33 50 13 27 27 50 32 50 4 0 7 4 7 9 0 4 32 61 70 125 39 65 70 121 70 127 0
5 5 9 10 9 6 0 10 6 10 14 0 8 6 21 13 28 7 7 30 42 50 78 41 73 42 74 190
325 59 99 110 185 114 191 8 10 19 29 52 88 10 17 46 78 81 136 34 58 72 121
82 140 11 19 47 79 79 133 33 54 59 102 59 107 0 6 5 10 10 10 6 0 10 5 10 10
0 6 11 27 24 48 13 20 77 127 141 237 65 110 122 202 127 203 4 2 8 10 8 19 0
8 8 27 19 41 23 33 101 163 101 168 0 2 16 28 35 58 19 30 35 57 35 60 0 3 17
32 37 63 20 32 35 58 32 59 -2 0 8 17 24 37 15 19 27 40 27 46 0 5 6 16 13 23
6 8 17 23 23 33 40 74 50 91 55 95 3 3 9 12 12 20 4 8 16 29 27 45 10 17 25
41 33 55 7 14 23 42 35 63 20 34 20 37 4 38 -9 0 -381 0 -826 0 -565 0 -817
-3 -835 -11 -24 -9 -91 -96 -91 -116 0 -5 -11 -24 -24 -43 -18 -28 -254 -441
-464 -811 -11 -19 -63 -111 -117 -205 -54 -93 -108 -188 -120 -210 -58 -104
-165 -291 -172 -300 -4 -5 -17 -28 -28 -50 -11 -22 -23 -42 -27 -43 -5 -2 -8
-8 -8 -13 0 -4 -20 -43 -45 -85 -25 -41 -45 -79 -45 -84 0 -4 -7 -13 -15 -20
-8 -7 -15 -21 -15 -30 0 -10 -4 -20 -8 -22 -5 -1 -20 -23 -34 -48 -78 -138
-83 -145 -86 -127 -2 9 -7 17 -10 17 -4 0 -16 17 -27 38 -11 20 -23 42 -28 47
-29 39 -77 116 -77 125 0 5 -4 10 -9 10 -5 0 -11 8 -15 18 -3 9 -44 76 -90
147 -47 72 -99 155 -117 185 -18 30 -36 57 -39 60 -4 3 -9 12 -13 20 -6 12
-202 322 -247 390 -5 8 -24 38 -42 65 -17 28 -50 79 -73 115 -23 36 -59 94
-81 130 -21 36 -41 67 -44 70 -3 3 -39 59 -80 125 -41 66 -78 125 -83 130 -22
29 -157 248 -157 256 0 5 -4 9 -9 9 -5 0 -13 10 -17 22 -3 12 -12 27 -18 34
-6 6 -36 50 -66 97 -34 53 -65 91 -81 97 -26 11 -1476 21 -1518 10z"/>
</g>
</svg>
